# xmcd CD database file
#
# Track frame offsets:
#	150
#	38412
#	62399
#	95264
#	125108
#	156678
#
# Disc length: 2501 seconds
#
# Revision: 0
# Processed by: cddbd v1.5.2PL0 Copyright (c) Steve Scherf et al.
# Submitted via: CDex 1.70beta2
#
DISCID=4809c306
DTITLE=Theolonius Monk - Mullligan Meets Monk
DYEAR=1957
DGENRE=Jazz
TTITLE0='Round Midnight
TTITLE1=Rhythm-A-Ning
TTITLE2=Sweet And Lonely
TTITLE3=Decidedly (Take 5)
TTITLE4=Straight, No Chaser (Take 3)
TTITLE5=I Mean You
EXTD=YEAR: 1957
EXTT0=
EXTT1=
EXTT2=
EXTT3=
EXTT4=
EXTT5=
PLAYORDER=
